# xmcd CD database file
#
# Track frame offsets:
#	150
#	15592
#	24922
#	38722
#	54031
#	62757
#	76938
#	91450
#	106210
#	118404
#	133013
#	145652
#	161142
#	176282
#	192072
#	206607
#	217694
#	229359
#	245516
#
# Disc length: 3668 seconds
#
# Revision: 0
# Processed by: cddbd v1.5.1PL2 Copyright (c) Steve Scherf et al.
# Submitted via: CDex 1.51
#
DISCID=f50e5213
DTITLE=Various Artist - ATELIER SAWANO SAMPLER VOL.2
DYEAR=2005
DGENRE=Jazz
TTITLE0=JOERG REITER TRIO - SIMPLE MOOD
TTITLE1=ARNOLD KLOS TRIO - ELIZETE
TTITLE2=CHIHIRO YAMANAKA TRIO - TAXI
TTITLE3=SERGE DELAITE TRIO - TIN TIN DEO
TTITLE4=ROBERT MALMBERG TRIO - SAMBA FOR MY FRIENDS
TTITLE5=THOMAS FINK TRIO - MY FOOLISH HEART
TTITLE6=VLADIMIR SHAFRANOV TRIO - ESTE SEU OLHAR (THESE EYES OF YOURS)
TTITLE7=PERRINE MANSUY TRIO - LA NUIT
TTITLE8=JOS VAN BEEST TRIO - TELKENS WEER
TTITLE9=MYRIAM ALTER QUINTET - BOSSA
TTITLE10=TIZIAN JOST TRIO - RECADO BOSSA NOVA
TTITLE11=KIYOSHI KITAGAWA TRIO - TIME TO GO
TTITLE12=MARIELLE KOEMAN and JOS VAN BEEST TRIO - YOU DON'T KNOW WHAT LOVE IS
TTITLE13=JEAN-PHILIPPE VIRET - HAYAKU
TTITLE14=TONU NAISSOO TRIO - ISN'T IT ROMANTIC
TTITLE15=ROBERT LAKATOS TRIO - ALLEMANDE
TTITLE16=PIERRE-STEPHANE MICHEL TRIO - OLEO
TTITLE17=ANDRE VILLEGER QUARTET - LESTER LEFT TOWN
TTITLE18=VLADIMIR SHAFRANOV TRIO - GOLDEN EARRINGS
EXTD=YEAR: 2005
EXTT0=
EXTT1=
EXTT2=
EXTT3=
EXTT4=
EXTT5=
EXTT6=
EXTT7=
EXTT8=
EXTT9=
EXTT10=
EXTT11=
EXTT12=
EXTT13=
EXTT14=
EXTT15=
EXTT16=
EXTT17=
EXTT18=
PLAYORDER=
